<?xml version="1.0" encoding="utf-8"?>
<!-- Generator: Adobe Illustrator 17.1.0, SVG Export Plug-In . SVG Version: 6.00 Build 0)  -->
<!DOCTYPE svg PUBLIC "-//W3C//DTD SVG 1.1//EN" "http://www.w3.org/Graphics/SVG/1.1/DTD/svg11.dtd">
<svg version="1.1" id="Layer_1" xmlns="http://www.w3.org/2000/svg" xmlns:xlink="http://www.w3.org/1999/xlink" x="0px" y="0px"
	 viewBox="0 0 500 150" enable-background="new 0 0 500 150" xml:space="preserve">
<g>
	<path d="M180.57,82.398V65.381h10.514v2.688h-7.633v4.512h6.912v2.616h-6.912v4.513h7.633v2.688H180.57z"/>
	<path d="M200.854,73.47c-0.312-0.048-0.624-0.072-0.912-0.072c-2.16,0-3.145,1.248-3.145,3.433v5.568h-2.784V70.709h2.712v1.872
		c0.553-1.271,1.849-2.016,3.385-2.016c0.336,0,0.624,0.048,0.744,0.071V73.47z"/>
	<path d="M202.772,82.398V70.709h2.761v11.689H202.772z"/>
	<path d="M210.7,76.542c0,2.352,1.512,3.672,3.264,3.672c1.824,0,2.664-1.271,2.929-2.16l2.448,0.889
		c-0.552,1.823-2.305,3.815-5.377,3.815c-3.432,0-6.048-2.664-6.048-6.216c0-3.601,2.616-6.192,5.977-6.192
		c3.144,0,4.872,1.968,5.353,3.84l-2.497,0.912c-0.264-1.032-1.056-2.185-2.832-2.185C212.212,72.917,210.7,74.189,210.7,76.542z"/>
	<path d="M228.003,82.398V65.381h10.585v2.712h-7.705v4.776h6.913v2.664h-6.913v6.865H228.003z"/>
	<path d="M247.134,73.47c-0.312-0.048-0.624-0.072-0.912-0.072c-2.16,0-3.145,1.248-3.145,3.433v5.568h-2.784V70.709h2.712v1.872
		c0.553-1.271,1.849-2.016,3.385-2.016c0.336,0,0.624,0.048,0.744,0.071V73.47z"/>
	<path d="M259.595,79.062c-0.624,2.041-2.473,3.696-5.28,3.696c-3.169,0-5.977-2.304-5.977-6.264c0-3.696,2.736-6.145,5.688-6.145
		c3.6,0,5.712,2.376,5.712,6.072c0,0.456-0.048,0.84-0.071,0.888h-8.545c0.071,1.776,1.464,3.049,3.192,3.049
		c1.68,0,2.544-0.889,2.928-2.041L259.595,79.062z M256.931,75.27c-0.049-1.368-0.961-2.592-2.881-2.592
		c-1.752,0-2.76,1.344-2.856,2.592H256.931z"/>
	<path d="M262.188,82.398V70.709h2.761v11.689H262.188z"/>
	<path d="M269.697,78.558c0.096,1.057,0.889,1.992,2.376,1.992c1.152,0,1.753-0.624,1.753-1.344c0-0.624-0.433-1.104-1.368-1.296
		l-1.729-0.385c-2.064-0.456-3.145-1.8-3.145-3.408c0-2.04,1.872-3.768,4.297-3.768c3.264,0,4.32,2.111,4.512,3.264l-2.352,0.672
		c-0.097-0.672-0.601-1.752-2.16-1.752c-0.984,0-1.681,0.624-1.681,1.345c0,0.624,0.456,1.08,1.177,1.224l1.775,0.36
		c2.209,0.479,3.36,1.824,3.36,3.552c0,1.776-1.439,3.744-4.416,3.744c-3.385,0-4.681-2.208-4.824-3.528L269.697,78.558z"/>
	<path d="M282.847,70.709h2.424v2.473h-2.424v5.424c0,1.032,0.456,1.465,1.488,1.465c0.384,0,0.84-0.072,0.96-0.097v2.305
		c-0.168,0.072-0.696,0.264-1.704,0.264c-2.16,0-3.504-1.296-3.504-3.48v-5.88h-2.16v-2.473h0.6c1.248,0,1.8-0.792,1.8-1.824v-1.752
		h2.521V70.709z"/>
	<path d="M290.637,75.701l3.001-0.456c0.672-0.096,0.863-0.432,0.863-0.84c0-0.983-0.672-1.776-2.208-1.776
		c-1.464,0-2.28,0.937-2.4,2.112l-2.544-0.576c0.216-2.016,2.04-3.815,4.921-3.815c3.6,0,4.968,2.04,4.968,4.368v5.809
		c0,1.056,0.12,1.752,0.145,1.872h-2.593c-0.023-0.072-0.12-0.553-0.12-1.488c-0.552,0.888-1.704,1.848-3.6,1.848
		c-2.448,0-3.961-1.68-3.961-3.528C287.108,77.142,288.645,75.989,290.637,75.701z M294.501,77.55v-0.528l-3.048,0.456
		c-0.864,0.145-1.561,0.624-1.561,1.584c0,0.792,0.601,1.513,1.704,1.513C293.157,80.574,294.501,79.83,294.501,77.55z"/>
	<path d="M311.196,80.262c0,1.057,0.096,1.944,0.12,2.137h-2.665c-0.048-0.265-0.119-1.032-0.119-1.513
		c-0.553,0.984-1.776,1.801-3.433,1.801c-3.36,0-5.616-2.641-5.616-6.169c0-3.36,2.28-6.12,5.568-6.12
		c2.04,0,3.072,0.936,3.432,1.68v-7.057h2.713V80.262z M305.411,80.238c1.824,0,3.097-1.513,3.097-3.744
		c0-2.232-1.248-3.625-3.072-3.625s-3.168,1.416-3.168,3.648S303.516,80.238,305.411,80.238z"/>
	<path d="M318.037,70.709h2.425v2.473h-2.425v5.424c0,1.032,0.456,1.465,1.488,1.465c0.384,0,0.84-0.072,0.96-0.097v2.305
		c-0.168,0.072-0.695,0.264-1.704,0.264c-2.16,0-3.504-1.296-3.504-3.48v-5.88h-2.16v-2.473h0.601c1.247,0,1.8-0.792,1.8-1.824
		v-1.752h2.52V70.709z"/>
</g>
</svg>
